{"asset":{"version":"2.0","generator":"Blockbench 4.5.2 glTF exporter"},"scenes":[{"nodes":[4],"name":"blockbench_export"}],"scene":0,"nodes":[{"name":"body","mesh":0},{"name":"light","mesh":1},{"name":"button","mesh":2},{"rotation":[0.6532814824381872,-0.27059805007309795,0.2705980500730989,0.6532814824381895],"translation":[0.5,0,-0.5],"name":"root","children":[0,1,2]},{"children":[3]}],"bufferViews":[{"buffer":0,"byteOffset":0,"byteLength":4896,"target":34962,"byteStride":12},{"buffer":0,"byteOffset":4896,"byteLength":4896,"target":34962,"byteStride":12},{"buffer":0,"byteOffset":9792,"byteLength":3264,"target":34962,"byteStride":8},{"buffer":0,"byteOffset":13056,"byteLength":1152,"target":34963},{"buffer":0,"byteOffset":14208,"byteLength":1584,"target":34962,"byteStride":12},{"buffer":0,"byteOffset":15792,"byteLength":1584,"target":34962,"byteStride":12},{"buffer":0,"byteOffset":17376,"byteLength":1056,"target":34962,"byteStride":8},{"buffer":0,"byteOffset":18432,"byteLength":360,"target":34963},{"buffer":0,"byteOffset":18792,"byteLength":1584,"target":34962,"byteStride":12},{"buffer":0,"byteOffset":20376,"byteLength":1584,"target":34962,"byteStride":12},{"buffer":0,"byteOffset":21960,"byteLength":1056,"target":34962,"byteStride":8},{"buffer":0,"byteOffset":23016,"byteLength":360,"target":34963}],"buffers":[{"byteLength":23376,"uri":"data:application/octet-stream;base64,"}],"accessors":[{"bufferView":0,"componentType":5126,"count":408,"max":[0.15625,1.5,0.15625],"min":[-0.15625,0,-0.15625],"type":"VEC3"},{"bufferView":1,"componentType":5126,"count":408,"max":[1,1,1],"min":[-1,-1,-1],"type":"VEC3"},{"bufferView":2,"componentType":5126,"count":408,"max":[0.46875,1],"min":[0,0.53125],"type":"VEC2"},{"bufferView":3,"componentType":5123,"count":576,"max":[407],"min":[0],"type":"SCALAR"},{"bufferView":4,"componentType":5126,"count":132,"max":[0.109375,1.5,0.109375],"min":[-0.109375,1.4375,-0.109375],"type":"VEC3"},{"bufferView":5,"componentType":5126,"count":132,"max":[0.9054028987884521,0.9884802103042603,0.9054028987884521],"min":[-0.9054028987884521,0.42455345392227173,-0.9054028987884521],"type":"VEC3"},{"bufferView":6,"componentType":5126,"count":132,"max":[0.375,1],"min":[0,0.6321750283241272],"type":"VEC2"},{"bufferView":7,"componentType":5123,"count":180,"max":[131],"min":[0],"type":"SCALAR"},{"bufferView":8,"componentType":5126,"count":132,"max":[0.078125,0,0.078125],"min":[-0.078125,-0.03125,-0.078125],"type":"VEC3"},{"bufferView":9,"componentType":5126,"count":132,"max":[0.830818772315979,-0.5565430521965027,0.830818772315979],"min":[-0.830818772315979,-0.9943052530288696,-0.830818772315979],"type":"VEC3"},{"bufferView":10,"componentType":5126,"count":132,"max":[0.53125,1],"min":[0,0.46875],"type":"VEC2"},{"bufferView":11,"componentType":5123,"count":180,"max":[131],"min":[0],"type":"SCALAR"}],"materials":[{"pbrMetallicRoughness":{"metallicFactor":0,"roughnessFactor":1,"baseColorTexture":{"index":0}},"alphaMode":"MASK","alphaCutoff":0.05,"doubleSided":true},{"pbrMetallicRoughness":{"metallicFactor":0,"roughnessFactor":1,"baseColorTexture":{"index":1}},"alphaMode":"MASK","alphaCutoff":0.05,"doubleSided":true}],"textures":[{"sampler":0,"source":0,"name":"flashligth"},{"sampler":1,"source":1,"name":"emisive"}],"samplers":[{"magFilter":9728,"minFilter":9728,"wrapS":33071,"wrapT":33071},{"magFilter":9728,"minFilter":9728,"wrapS":33071,"wrapT":33071}],"images":[{"mimeType":"image/png","uri":"data:image/png;base64,"},{"mimeType":"image/png","uri":"data:image/png;base64,"}],"meshes":[{"primitives":[{"mode":4,"attributes":{"POSITION":0,"NORMAL":1,"TEXCOORD_0":2},"indices":3,"material":0}]},{"primitives":[{"mode":4,"attributes":{"POSITION":4,"NORMAL":5,"TEXCOORD_0":6},"indices":7,"material":1}]},{"primitives":[{"mode":4,"attributes":{"POSITION":8,"NORMAL":9,"TEXCOORD_0":10},"indices":11,"material":0}]}]}